<svg xmlns="http://www.w3.org/2000/svg" width="14" height="15" viewBox="0 0 14 15" fill="none">
  <g clip-path="url(#clip0_144_798)">
    <mask id="path-1-inside-1_144_798" fill="white">
      <path d="M6.875 0.625C3.07788 0.625 0 3.70288 0 7.5C0 11.2971 3.07788 14.375 6.875 14.375C10.6721 14.375 13.75 11.2971 13.75 7.5C13.75 3.70288 10.6721 0.625 6.875 0.625ZM6.875 13.3008C3.67122 13.3008 1.07422 10.7038 1.07422 7.5C1.07422 4.29622 3.67122 1.69922 6.875 1.69922C10.0788 1.69922 12.6758 4.29622 12.6758 7.5C12.6758 10.7038 10.0788 13.3008 6.875 13.3008Z"/>
    </mask>
    <path d="M6.875 -0.875C2.24945 -0.875 -1.5 2.87445 -1.5 7.5H1.5C1.5 4.53131 3.90631 2.125 6.875 2.125V-0.875ZM-1.5 7.5C-1.5 12.1255 2.24945 15.875 6.875 15.875V12.875C3.90631 12.875 1.5 10.4687 1.5 7.5H-1.5ZM6.875 15.875C11.5005 15.875 15.25 12.1255 15.25 7.5H12.25C12.25 10.4687 9.84369 12.875 6.875 12.875V15.875ZM15.25 7.5C15.25 2.87445 11.5005 -0.875 6.875 -0.875V2.125C9.84369 2.125 12.25 4.53131 12.25 7.5H15.25ZM6.875 11.8008C4.49965 11.8008 2.57422 9.87535 2.57422 7.5H-0.425781C-0.425781 11.5322 2.8428 14.8008 6.875 14.8008V11.8008ZM2.57422 7.5C2.57422 5.12465 4.49965 3.19922 6.875 3.19922V0.199219C2.8428 0.199219 -0.425781 3.4678 -0.425781 7.5H2.57422ZM6.875 3.19922C9.25035 3.19922 11.1758 5.12465 11.1758 7.5H14.1758C14.1758 3.4678 10.9072 0.199219 6.875 0.199219V3.19922ZM11.1758 7.5C11.1758 9.87535 9.25035 11.8008 6.875 11.8008V14.8008C10.9072 14.8008 14.1758 11.5322 14.1758 7.5H11.1758Z" fill="#7EC2F4" mask="url(#path-1-inside-1_144_798)"/>
    <mask id="path-3-inside-2_144_798" fill="white">
      <path fill-rule="evenodd" clip-rule="evenodd" d="M9.45312 9.21875V10.0781H6.875H4.29688V9.21875H3.4375V10.9375H10.3125V9.21875H9.45312Z"/>
    </mask>
    <path d="M9.45312 9.21875V7.71875H7.95312V9.21875H9.45312ZM9.45312 10.0781V11.5781H10.9531V10.0781H9.45312ZM4.29688 10.0781H2.79688V11.5781H4.29688V10.0781ZM4.29688 9.21875H5.79688V7.71875H4.29688V9.21875ZM3.4375 9.21875V7.71875H1.9375V9.21875H3.4375ZM3.4375 10.9375H1.9375V12.4375H3.4375V10.9375ZM10.3125 10.9375V12.4375H11.8125V10.9375H10.3125ZM10.3125 9.21875H11.8125V7.71875H10.3125V9.21875ZM7.95312 9.21875V10.0781H10.9531V9.21875H7.95312ZM9.45312 8.57812H6.875V11.5781H9.45312V8.57812ZM6.875 8.57812H4.29688V11.5781H6.875V8.57812ZM5.79688 10.0781V9.21875H2.79688V10.0781H5.79688ZM4.29688 7.71875H3.4375V10.7188H4.29688V7.71875ZM1.9375 9.21875V10.9375H4.9375V9.21875H1.9375ZM3.4375 12.4375H10.3125V9.4375H3.4375V12.4375ZM11.8125 10.9375V9.21875H8.8125V10.9375H11.8125ZM10.3125 7.71875H9.45312V10.7188H10.3125V7.71875Z" fill="#7EC2F4" mask="url(#path-3-inside-2_144_798)"/>
    <path d="M6.71672 8.25H7.03328L6.875 8.44785L6.71672 8.25Z" stroke="#7EC2F4" stroke-width="1.5"/>
  </g>
  <defs>
    <clipPath id="clip0_144_798">
      <rect width="13.75" height="13.75" fill="white" transform="translate(0 0.625)"/>
    </clipPath>
  </defs>
</svg>