<svg xmlns="http://www.w3.org/2000/svg" width="17" height="17" viewBox="0 0 17 17" fill="none">
  <g clip-path="url(#clip0_143_704)">
    <mask id="path-1-inside-1_143_704" fill="white">
      <path d="M8.25 0C3.69345 0 0 3.69345 0 8.25C0 12.8065 3.69345 16.5 8.25 16.5C12.8065 16.5 16.5 12.8065 16.5 8.25C16.5 3.69345 12.8065 0 8.25 0ZM8.25 15.2109C4.40547 15.2109 1.28906 12.0945 1.28906 8.25C1.28906 4.40547 4.40547 1.28906 8.25 1.28906C12.0945 1.28906 15.2109 4.40547 15.2109 8.25C15.2109 12.0945 12.0945 15.2109 8.25 15.2109Z"/>
    </mask>
    <path d="M8.25 0C3.69345 0 0 3.69345 0 8.25C0 12.8065 3.69345 16.5 8.25 16.5C12.8065 16.5 16.5 12.8065 16.5 8.25C16.5 3.69345 12.8065 0 8.25 0ZM8.25 15.2109C4.40547 15.2109 1.28906 12.0945 1.28906 8.25C1.28906 4.40547 4.40547 1.28906 8.25 1.28906C12.0945 1.28906 15.2109 4.40547 15.2109 8.25C15.2109 12.0945 12.0945 15.2109 8.25 15.2109Z" fill="#7EC2F4"/>
    <path d="M8.25 -1.5C2.86503 -1.5 -1.5 2.86503 -1.5 8.25H1.5C1.5 4.52188 4.52188 1.5 8.25 1.5V-1.5ZM-1.5 8.25C-1.5 13.635 2.86503 18 8.25 18V15C4.52188 15 1.5 11.9781 1.5 8.25H-1.5ZM8.25 18C13.635 18 18 13.635 18 8.25H15C15 11.9781 11.9781 15 8.25 15V18ZM18 8.25C18 2.86503 13.635 -1.5 8.25 -1.5V1.5C11.9781 1.5 15 4.52188 15 8.25H18ZM8.25 13.7109C5.23389 13.7109 2.78906 11.2661 2.78906 8.25H-0.210938C-0.210938 12.923 3.57704 16.7109 8.25 16.7109V13.7109ZM2.78906 8.25C2.78906 5.23389 5.23389 2.78906 8.25 2.78906V-0.210938C3.57704 -0.210938 -0.210938 3.57704 -0.210938 8.25H2.78906ZM8.25 2.78906C11.2661 2.78906 13.7109 5.23389 13.7109 8.25H16.7109C16.7109 3.57704 12.923 -0.210938 8.25 -0.210938V2.78906ZM13.7109 8.25C13.7109 11.2661 11.2661 13.7109 8.25 13.7109V16.7109C12.923 16.7109 16.7109 12.923 16.7109 8.25H13.7109Z" fill="#7EC2F4" mask="url(#path-1-inside-1_143_704)"/>
    <mask id="path-3-inside-2_143_704" fill="white">
      <path fill-rule="evenodd" clip-rule="evenodd" d="M11.3438 10.3125V11.3438H8.25H5.15625V10.3125H4.125V12.375H12.375V10.3125H11.3438Z"/>
    </mask>
    <path fill-rule="evenodd" clip-rule="evenodd" d="M11.3438 10.3125V11.3438H8.25H5.15625V10.3125H4.125V12.375H12.375V10.3125H11.3438Z" fill="#7EC2F4"/>
    <path d="M11.3438 10.3125V8.8125H9.84375V10.3125H11.3438ZM11.3438 11.3438V12.8438H12.8438V11.3438H11.3438ZM5.15625 11.3438H3.65625V12.8438H5.15625V11.3438ZM5.15625 10.3125H6.65625V8.8125H5.15625V10.3125ZM4.125 10.3125V8.8125H2.625V10.3125H4.125ZM4.125 12.375H2.625V13.875H4.125V12.375ZM12.375 12.375V13.875H13.875V12.375H12.375ZM12.375 10.3125H13.875V8.8125H12.375V10.3125ZM9.84375 10.3125V11.3438H12.8438V10.3125H9.84375ZM11.3438 9.84375H8.25V12.8438H11.3438V9.84375ZM8.25 9.84375H5.15625V12.8438H8.25V9.84375ZM6.65625 11.3438V10.3125H3.65625V11.3438H6.65625ZM5.15625 8.8125H4.125V11.8125H5.15625V8.8125ZM2.625 10.3125V12.375H5.625V10.3125H2.625ZM4.125 13.875H12.375V10.875H4.125V13.875ZM13.875 12.375V10.3125H10.875V12.375H13.875ZM12.375 8.8125H11.3438V11.8125H12.375V8.8125Z" fill="#7EC2F4" mask="url(#path-3-inside-2_143_704)"/>
    <path d="M8.01562 9H8.48438H8.75203L8.25 9.62754L7.74797 9H8.01562Z" fill="#7EC2F4" stroke="#7EC2F4" stroke-width="1.5"/>
  </g>
  <defs>
    <clipPath id="clip0_143_704">
      <rect width="16.5" height="16.5" fill="white"/>
    </clipPath>
  </defs>
</svg>