<svg xmlns="http://www.w3.org/2000/svg" width="15" height="15" viewBox="0 0 15 15" fill="none">
  <path fill-rule="evenodd" clip-rule="evenodd" d="M7.02017 0.0116372C6.97235 0.0172622 6.80923 0.0341372 6.65829 0.0491372C4.90236 0.22445 3.13329 1.13007 1.93704 2.46695C0.614231 3.94539 -0.0579571 5.78007 0.00391791 7.73476C0.11173 11.1107 2.43204 13.9691 5.72361 14.7829C7.65392 15.2601 9.77642 14.9198 11.4583 13.8641C13.1364 12.8095 14.3111 11.1848 14.7808 9.26664C14.942 8.60945 14.9795 8.27476 14.9795 7.49757C14.9795 6.72039 14.942 6.3857 14.7808 5.72851C14.0383 2.6957 11.5408 0.46445 8.43298 0.0575747C8.16673 0.0228872 7.19829 -0.00805032 7.02017 0.0116372ZM8.29517 1.46289C9.33954 1.59789 10.3174 2.00007 11.193 2.65445C11.5014 2.88507 12.108 3.49164 12.3386 3.80008C12.8645 4.50414 13.2536 5.33195 13.4299 6.12414C13.6305 7.02882 13.6305 7.96632 13.4299 8.87101C13.0417 10.6157 11.8127 12.1644 10.1833 12.9613C9.59454 13.2491 8.98704 13.4376 8.32048 13.5388C7.92298 13.5998 7.06798 13.5998 6.67048 13.5388C4.84423 13.2613 3.30298 12.2648 2.33267 10.7329C2.13204 10.4169 1.86954 9.8657 1.73829 9.48414C1.51236 8.8307 1.41486 8.22976 1.41486 7.49757C1.41486 6.52351 1.60329 5.69289 2.02048 4.83507C2.33923 4.1807 2.66361 3.72882 3.19517 3.19726C3.72673 2.6657 4.17861 2.34132 4.83298 2.02257C5.91392 1.49664 7.08954 1.30726 8.29517 1.46289ZM7.21985 4.01945C7.00985 4.08789 6.89079 4.20789 6.83267 4.40851C6.79892 4.52289 6.79517 4.78445 6.80079 6.38757C6.80829 8.23445 6.80829 8.23539 6.86267 8.33757C6.9311 8.46601 7.06236 8.58226 7.18704 8.62632C7.31079 8.66945 7.68017 8.66945 7.80392 8.62632C7.92861 8.58226 8.05986 8.46601 8.12829 8.33757C8.18267 8.23539 8.18267 8.23445 8.19017 6.38757C8.19767 4.37007 8.19767 4.3682 8.05423 4.19851C7.93798 4.05976 7.81329 4.01382 7.53298 4.00632C7.39517 4.00257 7.25454 4.0082 7.21985 4.01945ZM7.29485 9.86945C7.11767 9.92757 6.94235 10.0785 6.85704 10.2463C6.79142 10.3776 6.78017 10.6148 6.83361 10.7741C6.92173 11.0413 7.21142 11.2476 7.49548 11.2476C7.77954 11.2476 8.06923 11.0413 8.15736 10.7741C8.21079 10.6148 8.19954 10.3776 8.13392 10.2463C8.07298 10.1263 7.92673 9.9782 7.80767 9.91632C7.69892 9.86007 7.40548 9.83289 7.29485 9.86945Z" fill="#F37575"/>
</svg>