<svg xmlns="http://www.w3.org/2000/svg" width="60" height="60" viewBox="0 0 60 60" fill="none">
  <g clip-path="url(#clip0_159_663)">
    <path d="M29.9993 0.000701904C13.4305 0.00152222 0.00140625 13.4311 0 30C0.00140625 46.5688 13.4305 59.9984 29.9993 59.9993C46.5695 59.9984 59.9991 46.5688 60 30C59.9991 13.4311 46.5695 0.00152222 29.9993 0.000701904ZM11.4383 11.4389C14.1735 8.70516 17.5041 6.57855 21.2182 5.26019C19.4389 7.41351 17.9557 10.1711 16.7936 13.3597H9.69984C10.2483 12.6923 10.8277 12.0497 11.4383 11.4389ZM7.68891 16.1722H15.8904C14.8348 19.9139 14.2017 24.1215 14.09 28.5937H3.78832C4.0282 24.0464 5.42578 19.815 7.68891 16.1722ZM7.68891 43.8278C5.42578 40.185 4.0282 35.9536 3.78832 31.4062H14.0998C14.2124 35.8739 14.8275 40.0889 15.8817 43.8279L7.68891 43.8278ZM11.4383 48.5609C10.8277 47.9502 10.2482 47.3075 9.69973 46.6402H16.7981C17.2997 48.0199 17.855 49.3289 18.4753 50.5319C19.2902 52.1067 20.2048 53.5165 21.2114 54.7378C17.4998 53.4195 14.1716 51.2928 11.4383 48.5609ZM28.5935 56.211C28.1545 56.188 27.7182 56.1551 27.2852 56.1102C26.595 55.8008 25.9116 55.3778 25.2345 54.8257C23.1682 53.143 21.2529 50.2939 19.7972 46.6402H28.5934V56.211H28.5935ZM28.5935 43.8278H18.8159C17.7053 40.1749 17.021 35.9398 16.9024 31.4061H28.5934V43.8278H28.5935ZM28.5935 28.5937H16.9113C17.0295 24.0574 17.717 19.8259 18.8284 16.1722H28.5936L28.5935 28.5937ZM28.5935 13.3597H19.8102C20.1745 12.4468 20.5563 11.5654 20.9743 10.7587C22.2212 8.34176 23.6896 6.4357 25.2346 5.17406C25.9116 4.62211 26.595 4.19906 27.2854 3.88969C27.7184 3.84492 28.1545 3.81187 28.5936 3.78902L28.5935 13.3597ZM52.3116 16.1722C54.5747 19.815 55.9718 24.0465 56.2117 28.5937H45.9002C45.7876 24.1261 45.1725 19.9111 44.1178 16.1722H52.3116ZM48.5617 11.4389C49.1723 12.0496 49.7518 12.6923 50.3003 13.3597H43.2014C42.6997 11.9801 42.144 10.6709 41.5242 9.46793C40.7094 7.89328 39.7948 6.4834 38.7882 5.26207C42.5002 6.58125 45.8279 8.70715 48.5617 11.4389ZM31.406 3.78902C31.845 3.81187 32.2813 3.84574 32.7138 3.88969C33.4041 4.20012 34.0876 4.62211 34.7651 5.17406C36.8318 6.85676 38.7466 9.70582 40.2022 13.3596H31.406V3.78902ZM31.406 16.1722H41.1837C42.2941 19.8251 42.979 24.0601 43.0971 28.5937H31.406V16.1722ZM31.406 31.4062H43.0879C42.9698 35.9426 42.2823 40.174 41.1708 43.8279H31.406V31.4062ZM34.765 54.8257C34.0875 55.3778 33.4039 55.7999 32.7137 56.1102C32.2812 56.1541 31.8449 56.188 31.4059 56.211V46.6403H40.1892C39.8249 47.553 39.4431 48.4346 39.0252 49.2412C37.7784 51.6581 36.31 53.5642 34.765 54.8257ZM48.5617 48.5609C45.827 51.2946 42.4956 53.4213 38.7813 54.7396C40.5611 52.5862 42.0432 49.8288 43.206 46.6402H50.3003C49.7517 47.3077 49.1723 47.9503 48.5617 48.5609ZM52.3116 43.8278H44.1087C45.1643 40.0861 45.7978 35.8775 45.9095 31.4061H56.2117C55.9718 35.9536 54.5747 40.185 52.3116 43.8278Z" fill="black"/>
  </g>
  <defs>
    <clipPath id="clip0_159_663">
      <rect width="60" height="60" fill="white"/>
    </clipPath>
  </defs>
</svg>