<svg xmlns="http://www.w3.org/2000/svg" width="20" height="20" viewBox="0 0 20 20" fill="none">
<path d="M1.66663 9.99999C1.66663 6.07161 1.66663 4.10743 2.88702 2.88705C4.1074 1.66666 6.07158 1.66666 9.99996 1.66666C13.9283 1.66666 15.8925 1.66666 17.1129 2.88705C18.3333 4.10743 18.3333 6.07161 18.3333 9.99999C18.3333 13.9283 18.3333 15.8926 17.1129 17.1129C15.8925 18.3333 13.9283 18.3333 9.99996 18.3333C6.07158 18.3333 4.1074 18.3333 2.88702 17.1129C1.66663 15.8926 1.66663 13.9283 1.66663 9.99999Z" stroke="#263142"/>
<path d="M13.3333 8.33333C14.2538 8.33333 15 7.58714 15 6.66667C15 5.74619 14.2538 5 13.3333 5C12.4128 5 11.6666 5.74619 11.6666 6.66667C11.6666 7.58714 12.4128 8.33333 13.3333 8.33333Z" stroke="#263142"/>
<path d="M1.66663 10.4167L3.12628 9.13958C3.88568 8.47516 5.03019 8.51324 5.7437 9.22674L9.31846 12.8015C9.89113 13.3742 10.7926 13.4523 11.4553 12.9866L11.7038 12.812C12.6573 12.1418 13.9474 12.2195 14.8137 12.9992L17.5 15.4167" stroke="#263142" stroke-linecap="round"/>
</svg>