<svg xmlns="http://www.w3.org/2000/svg" width="20" height="20" viewBox="0 0 20 20" fill="none">
<path d="M10 12.5C11.3807 12.5 12.5 11.3807 12.5 10C12.5 8.61925 11.3807 7.5 10 7.5C8.61925 7.5 7.5 8.61925 7.5 10C7.5 11.3807 8.61925 12.5 10 12.5Z" stroke="#292D32" stroke-miterlimit="10" stroke-linecap="round" stroke-linejoin="round"/>
<path d="M1.66663 10.7333V9.26658C1.66663 8.39992 2.37496 7.68329 3.24996 7.68329C4.75829 7.68329 5.37496 6.61662 4.61663 5.30829C4.18329 4.55829 4.44163 3.58329 5.19996 3.14995L6.64163 2.32495C7.29996 1.93329 8.14996 2.16662 8.54163 2.82495L8.63329 2.98329C9.38329 4.29162 10.6166 4.29162 11.375 2.98329L11.4666 2.82495C11.8583 2.16662 12.7083 1.93329 13.3666 2.32495L14.8083 3.14995C15.5666 3.58329 15.825 4.55829 15.3916 5.30829C14.6333 6.61662 15.25 7.68329 16.7583 7.68329C17.625 7.68329 18.3416 8.39158 18.3416 9.26658V10.7333C18.3416 11.5999 17.6333 12.3166 16.7583 12.3166C15.25 12.3166 14.6333 13.3833 15.3916 14.6916C15.825 15.4499 15.5666 16.4166 14.8083 16.8499L13.3666 17.6749C12.7083 18.0666 11.8583 17.8333 11.4666 17.1749L11.375 17.0166C10.625 15.7083 9.39163 15.7083 8.63329 17.0166L8.54163 17.1749C8.14996 17.8333 7.29996 18.0666 6.64163 17.6749L5.19996 16.8499C4.44163 16.4166 4.18329 15.4416 4.61663 14.6916C5.37496 13.3833 4.75829 12.3166 3.24996 12.3166C2.37496 12.3166 1.66663 11.5999 1.66663 10.7333Z" stroke="#292D32" stroke-miterlimit="10" stroke-linecap="round" stroke-linejoin="round"/>
</svg>